<svg width="347" height="198" viewBox="0 0 347 198" fill="none" xmlns="http://www.w3.org/2000/svg">
<g filter="url(#filter0_d_65_48)">
<g clip-path="url(#clip0_65_48)">
<path d="M44 26C44 17.1634 51.1634 10 60 10H347V198H44V26Z" fill="#0B0120"/>
<path d="M44 129.758L47.1562 129.191C50.3125 128.624 56.625 127.489 62.9375 129.632C69.25 131.774 75.5625 137.194 81.875 134.033C88.1875 130.873 94.5 119.133 100.812 117.907C107.125 116.681 113.437 125.971 119.75 128.948C126.062 131.925 132.375 128.591 138.688 123.732C145 118.872 151.312 112.488 157.625 113.224C163.937 113.96 170.25 121.818 176.562 125.283C182.875 128.749 189.187 127.823 195.5 125.954C201.812 124.084 208.125 121.27 214.437 119.359C220.75 117.448 227.063 116.439 233.375 113.193C239.687 109.946 246 104.461 252.312 98.2214C258.625 91.9814 264.937 84.9861 271.25 83.3754C277.562 81.7647 283.875 85.5386 290.187 90.8394C296.5 96.1402 302.812 102.968 309.125 104.488C315.437 106.009 321.75 102.223 328.062 97.9343C334.375 93.6459 340.687 88.8557 343.844 86.4605L347 84.0654" stroke="#6FF799" stroke-width="2"/>
<circle cx="201" cy="124" r="6" fill="#6FF799"/>
<path d="M78.544 60H76.4474L81.1584 46.9091H83.4403L88.1513 60H86.0547L82.3537 49.2869H82.2514L78.544 60ZM78.8956 54.8736H85.6967V56.5355H78.8956V54.8736ZM91.7995 54.1705V60H89.8883V50.1818H91.7228V51.7798H91.8443C92.0701 51.2599 92.4238 50.8423 92.9054 50.527C93.3912 50.2116 94.0027 50.054 94.7399 50.054C95.4089 50.054 95.9949 50.1946 96.4977 50.4759C97.0005 50.7528 97.3904 51.1662 97.6674 51.7159C97.9444 52.2656 98.0829 52.9453 98.0829 53.755V60H96.1717V53.9851C96.1717 53.2734 95.9863 52.7173 95.6156 52.3168C95.2449 51.9119 94.7356 51.7095 94.0879 51.7095C93.6447 51.7095 93.2505 51.8054 92.9054 51.9972C92.5645 52.1889 92.2939 52.4702 92.0936 52.8409C91.8975 53.2074 91.7995 53.6506 91.7995 54.1705ZM103.503 60.2173C102.881 60.2173 102.319 60.1023 101.816 59.8722C101.313 59.6378 100.915 59.299 100.621 58.8558C100.331 58.4126 100.186 57.8693 100.186 57.2259C100.186 56.6719 100.292 56.2159 100.506 55.858C100.719 55.5 101.006 55.2166 101.368 55.0078C101.731 54.799 102.135 54.6413 102.583 54.5348C103.03 54.4283 103.486 54.3473 103.951 54.2919C104.539 54.2237 105.016 54.1683 105.383 54.1257C105.749 54.0788 106.015 54.0043 106.182 53.902C106.348 53.7997 106.431 53.6335 106.431 53.4034V53.3587C106.431 52.8004 106.273 52.3679 105.958 52.0611C105.647 51.7543 105.182 51.6009 104.564 51.6009C103.921 51.6009 103.414 51.7436 103.043 52.0291C102.677 52.3104 102.423 52.6236 102.282 52.9688L100.486 52.5597C100.699 51.9631 101.01 51.4815 101.42 51.1151C101.833 50.7443 102.308 50.4759 102.845 50.3097C103.382 50.1392 103.947 50.054 104.539 50.054C104.931 50.054 105.346 50.1009 105.785 50.1946C106.229 50.2841 106.642 50.4503 107.025 50.6932C107.413 50.9361 107.731 51.2834 107.978 51.7351C108.225 52.1825 108.349 52.7642 108.349 53.4801V60H106.482V58.6577H106.405C106.282 58.9048 106.096 59.1477 105.849 59.3864C105.602 59.625 105.285 59.8232 104.897 59.9808C104.509 60.1385 104.045 60.2173 103.503 60.2173ZM103.919 58.6832C104.447 58.6832 104.899 58.5788 105.274 58.37C105.653 58.1612 105.941 57.8885 106.137 57.5518C106.337 57.2109 106.437 56.8466 106.437 56.4588V55.1932C106.369 55.2614 106.237 55.3253 106.041 55.3849C105.849 55.4403 105.63 55.4893 105.383 55.532C105.135 55.5703 104.895 55.6065 104.66 55.6406C104.426 55.6705 104.23 55.696 104.072 55.7173C103.702 55.7642 103.363 55.843 103.056 55.9538C102.753 56.0646 102.51 56.2244 102.327 56.4332C102.148 56.6378 102.059 56.9105 102.059 57.2514C102.059 57.7244 102.233 58.0824 102.583 58.3253C102.932 58.5639 103.378 58.6832 103.919 58.6832ZM112.805 46.9091V60H110.894V46.9091H112.805ZM116.585 63.6818C116.299 63.6818 116.039 63.6584 115.805 63.6115C115.57 63.5689 115.396 63.522 115.281 63.4709L115.741 61.9048C116.09 61.9986 116.401 62.0391 116.674 62.0263C116.947 62.0135 117.188 61.9112 117.396 61.7195C117.61 61.5277 117.797 61.2145 117.959 60.7798L118.195 60.1278L114.603 50.1818H116.649L119.135 57.8011H119.237L121.724 50.1818H123.776L119.73 61.3104C119.542 61.8217 119.303 62.2543 119.014 62.608C118.724 62.9659 118.379 63.2344 117.978 63.4134C117.578 63.5923 117.113 63.6818 116.585 63.6818ZM132.929 52.5788L131.197 52.8857C131.124 52.6641 131.009 52.4531 130.852 52.2528C130.698 52.0526 130.49 51.8885 130.225 51.7607C129.961 51.6328 129.631 51.5689 129.235 51.5689C128.693 51.5689 128.242 51.6903 127.879 51.9332C127.517 52.1719 127.336 52.4808 127.336 52.8601C127.336 53.1882 127.458 53.4524 127.7 53.6527C127.943 53.853 128.335 54.017 128.877 54.1449L130.436 54.5028C131.34 54.7116 132.013 55.0334 132.456 55.468C132.899 55.9027 133.121 56.4673 133.121 57.1619C133.121 57.75 132.95 58.2741 132.61 58.7344C132.273 59.1903 131.802 59.5483 131.197 59.8082C130.596 60.0682 129.899 60.1982 129.107 60.1982C128.007 60.1982 127.11 59.9638 126.416 59.495C125.721 59.022 125.295 58.3509 125.137 57.4815L126.985 57.2003C127.1 57.6818 127.336 58.0462 127.694 58.2933C128.052 58.5362 128.519 58.6577 129.094 58.6577C129.72 58.6577 130.221 58.5277 130.596 58.2678C130.971 58.0036 131.159 57.6818 131.159 57.3026C131.159 56.9957 131.044 56.7379 130.813 56.5291C130.588 56.3203 130.24 56.1626 129.771 56.0561L128.11 55.6918C127.193 55.483 126.516 55.1506 126.077 54.6946C125.642 54.2386 125.425 53.6612 125.425 52.9624C125.425 52.3828 125.587 51.8757 125.911 51.4411C126.235 51.0064 126.682 50.6676 127.253 50.4247C127.824 50.1776 128.478 50.054 129.215 50.054C130.276 50.054 131.112 50.2841 131.721 50.7443C132.33 51.2003 132.733 51.8118 132.929 52.5788ZM135.222 60V50.1818H137.134V60H135.222ZM136.188 48.6669C135.855 48.6669 135.57 48.5561 135.331 48.3345C135.097 48.1087 134.979 47.8402 134.979 47.5291C134.979 47.2138 135.097 46.9453 135.331 46.7237C135.57 46.4979 135.855 46.3849 136.188 46.3849C136.52 46.3849 136.803 46.4979 137.038 46.7237C137.276 46.9453 137.396 47.2138 137.396 47.5291C137.396 47.8402 137.276 48.1087 137.038 48.3345C136.803 48.5561 136.52 48.6669 136.188 48.6669ZM147.062 52.5788L145.33 52.8857C145.257 52.6641 145.142 52.4531 144.985 52.2528C144.831 52.0526 144.622 51.8885 144.358 51.7607C144.094 51.6328 143.764 51.5689 143.367 51.5689C142.826 51.5689 142.374 51.6903 142.012 51.9332C141.65 52.1719 141.469 52.4808 141.469 52.8601C141.469 53.1882 141.59 53.4524 141.833 53.6527C142.076 53.853 142.468 54.017 143.009 54.1449L144.569 54.5028C145.472 54.7116 146.146 55.0334 146.589 55.468C147.032 55.9027 147.254 56.4673 147.254 57.1619C147.254 57.75 147.083 58.2741 146.742 58.7344C146.406 59.1903 145.935 59.5483 145.33 59.8082C144.729 60.0682 144.032 60.1982 143.24 60.1982C142.14 60.1982 141.243 59.9638 140.548 59.495C139.854 59.022 139.428 58.3509 139.27 57.4815L141.117 57.2003C141.232 57.6818 141.469 58.0462 141.827 58.2933C142.185 58.5362 142.651 58.6577 143.227 58.6577C143.853 58.6577 144.354 58.5277 144.729 58.2678C145.104 58.0036 145.291 57.6818 145.291 57.3026C145.291 56.9957 145.176 56.7379 144.946 56.5291C144.72 56.3203 144.373 56.1626 143.904 56.0561L142.242 55.6918C141.326 55.483 140.649 55.1506 140.21 54.6946C139.775 54.2386 139.558 53.6612 139.558 52.9624C139.558 52.3828 139.72 51.8757 140.044 51.4411C140.367 51.0064 140.815 50.6676 141.386 50.4247C141.957 50.1776 142.611 50.054 143.348 50.054C144.409 50.054 145.244 50.2841 145.854 50.7443C146.463 51.2003 146.866 51.8118 147.062 52.5788Z" fill="white"/>
<path d="M76.7045 154.182H77.5455L79.5227 159.011H79.5909L81.5682 154.182H82.4091V160H81.75V155.58H81.6932L79.875 160H79.2386L77.4205 155.58H77.3636V160H76.7045V154.182ZM85.5036 160.091C85.1096 160.091 84.764 159.997 84.4666 159.81C84.1712 159.622 83.9401 159.36 83.7734 159.023C83.6087 158.686 83.5263 158.292 83.5263 157.841C83.5263 157.386 83.6087 156.99 83.7734 156.651C83.9401 156.312 84.1712 156.048 84.4666 155.861C84.764 155.673 85.1096 155.58 85.5036 155.58C85.8975 155.58 86.2422 155.673 86.5376 155.861C86.835 156.048 87.0661 156.312 87.2308 156.651C87.3975 156.99 87.4808 157.386 87.4808 157.841C87.4808 158.292 87.3975 158.686 87.2308 159.023C87.0661 159.36 86.835 159.622 86.5376 159.81C86.2422 159.997 85.8975 160.091 85.5036 160.091ZM85.5036 159.489C85.8028 159.489 86.049 159.412 86.2422 159.259C86.4354 159.105 86.5784 158.903 86.6712 158.653C86.764 158.403 86.8104 158.133 86.8104 157.841C86.8104 157.549 86.764 157.277 86.6712 157.026C86.5784 156.774 86.4354 156.57 86.2422 156.415C86.049 156.259 85.8028 156.182 85.5036 156.182C85.2043 156.182 84.9581 156.259 84.7649 156.415C84.5717 156.57 84.4287 156.774 84.3359 157.026C84.2431 157.277 84.1967 157.549 84.1967 157.841C84.1967 158.133 84.2431 158.403 84.3359 158.653C84.4287 158.903 84.5717 159.105 84.7649 159.259C84.9581 159.412 85.2043 159.489 85.5036 159.489ZM89.1747 157.375V160H88.5043V155.636H89.152V156.318H89.2088C89.3111 156.097 89.4664 155.919 89.6747 155.784C89.883 155.648 90.152 155.58 90.4815 155.58C90.777 155.58 91.0355 155.64 91.2571 155.761C91.4787 155.881 91.651 156.062 91.7741 156.307C91.8973 156.549 91.9588 156.856 91.9588 157.227V160H91.2884V157.273C91.2884 156.93 91.1993 156.663 91.0213 156.472C90.8433 156.278 90.599 156.182 90.2884 156.182C90.0743 156.182 89.883 156.228 89.7145 156.321C89.5478 156.414 89.4162 156.549 89.3196 156.727C89.223 156.905 89.1747 157.121 89.1747 157.375Z" fill="white" fill-opacity="0.3"/>
<path d="M117.386 154.807V154.182H121.75V154.807H119.92V160H119.216V154.807H117.386ZM124.903 158.216V155.636H125.573V160H124.903V159.261H124.857C124.755 159.483 124.596 159.671 124.38 159.827C124.164 159.98 123.891 160.057 123.562 160.057C123.289 160.057 123.047 159.997 122.835 159.878C122.622 159.757 122.456 159.575 122.335 159.332C122.213 159.088 122.153 158.78 122.153 158.409V155.636H122.823V158.364C122.823 158.682 122.912 158.936 123.09 159.125C123.27 159.314 123.499 159.409 123.778 159.409C123.944 159.409 124.114 159.366 124.286 159.281C124.46 159.196 124.606 159.065 124.724 158.889C124.843 158.713 124.903 158.489 124.903 158.216ZM128.631 160.091C128.21 160.091 127.848 159.998 127.543 159.812C127.24 159.625 127.006 159.364 126.841 159.028C126.678 158.691 126.597 158.299 126.597 157.852C126.597 157.405 126.678 157.011 126.841 156.67C127.006 156.328 127.235 156.061 127.528 155.869C127.824 155.676 128.169 155.58 128.562 155.58C128.79 155.58 129.014 155.617 129.236 155.693C129.457 155.769 129.659 155.892 129.841 156.062C130.023 156.231 130.168 156.455 130.276 156.733C130.384 157.011 130.438 157.354 130.438 157.761V158.045H127.074V157.466H129.756C129.756 157.22 129.706 157 129.608 156.807C129.511 156.614 129.373 156.461 129.193 156.349C129.015 156.238 128.805 156.182 128.562 156.182C128.295 156.182 128.064 156.248 127.869 156.381C127.676 156.511 127.527 156.682 127.423 156.892C127.319 157.102 127.267 157.328 127.267 157.568V157.955C127.267 158.284 127.324 158.563 127.438 158.793C127.553 159.02 127.713 159.193 127.918 159.312C128.122 159.43 128.36 159.489 128.631 159.489C128.807 159.489 128.966 159.464 129.108 159.415C129.252 159.364 129.376 159.288 129.48 159.188C129.584 159.085 129.665 158.958 129.722 158.807L130.369 158.989C130.301 159.208 130.187 159.402 130.026 159.568C129.865 159.733 129.666 159.862 129.429 159.955C129.192 160.045 128.926 160.091 128.631 160.091Z" fill="white" fill-opacity="0.3"/>
<path d="M156.761 160L155.17 154.182H155.886L157.102 158.92H157.159L158.398 154.182H159.193L160.432 158.92H160.489L161.705 154.182H162.42L160.83 160H160.102L158.818 155.364H158.773L157.489 160H156.761ZM164.631 160.091C164.21 160.091 163.848 159.998 163.543 159.812C163.24 159.625 163.006 159.364 162.841 159.028C162.678 158.691 162.597 158.299 162.597 157.852C162.597 157.405 162.678 157.011 162.841 156.67C163.006 156.328 163.235 156.061 163.528 155.869C163.824 155.676 164.169 155.58 164.562 155.58C164.79 155.58 165.014 155.617 165.236 155.693C165.457 155.769 165.659 155.892 165.841 156.062C166.023 156.231 166.168 156.455 166.276 156.733C166.384 157.011 166.438 157.354 166.438 157.761V158.045H163.074V157.466H165.756C165.756 157.22 165.706 157 165.608 156.807C165.511 156.614 165.373 156.461 165.193 156.349C165.015 156.238 164.805 156.182 164.562 156.182C164.295 156.182 164.064 156.248 163.869 156.381C163.676 156.511 163.527 156.682 163.423 156.892C163.319 157.102 163.267 157.328 163.267 157.568V157.955C163.267 158.284 163.324 158.563 163.438 158.793C163.553 159.02 163.713 159.193 163.918 159.312C164.122 159.43 164.36 159.489 164.631 159.489C164.807 159.489 164.966 159.464 165.108 159.415C165.252 159.364 165.376 159.288 165.48 159.188C165.584 159.085 165.665 158.958 165.722 158.807L166.369 158.989C166.301 159.208 166.187 159.402 166.026 159.568C165.865 159.733 165.666 159.862 165.429 159.955C165.192 160.045 164.926 160.091 164.631 160.091ZM169.105 160.091C168.741 160.091 168.42 159.999 168.142 159.815C167.864 159.63 167.646 159.368 167.489 159.031C167.331 158.692 167.253 158.292 167.253 157.83C167.253 157.371 167.331 156.973 167.489 156.636C167.646 156.299 167.865 156.039 168.145 155.855C168.425 155.671 168.749 155.58 169.116 155.58C169.401 155.58 169.625 155.627 169.79 155.722C169.956 155.814 170.083 155.92 170.17 156.04C170.259 156.157 170.329 156.254 170.378 156.33H170.435V154.182H171.105V160H170.457V159.33H170.378C170.329 159.409 170.259 159.509 170.168 159.631C170.077 159.75 169.947 159.857 169.778 159.952C169.61 160.045 169.385 160.091 169.105 160.091ZM169.196 159.489C169.465 159.489 169.692 159.419 169.878 159.278C170.063 159.136 170.205 158.94 170.301 158.69C170.398 158.438 170.446 158.148 170.446 157.818C170.446 157.492 170.399 157.207 170.304 156.963C170.209 156.717 170.069 156.526 169.884 156.389C169.698 156.251 169.469 156.182 169.196 156.182C168.912 156.182 168.675 156.255 168.486 156.401C168.298 156.545 168.157 156.741 168.062 156.989C167.97 157.235 167.923 157.511 167.923 157.818C167.923 158.129 167.971 158.411 168.065 158.665C168.162 158.917 168.304 159.117 168.491 159.267C168.681 159.415 168.916 159.489 169.196 159.489Z" fill="white" fill-opacity="0.3"/>
<path d="M235.705 160V154.182H239.193V154.807H236.409V156.773H238.932V157.398H236.409V160H235.705ZM240.262 160V155.636H240.91V156.295H240.955C241.035 156.08 241.179 155.904 241.387 155.77C241.595 155.635 241.83 155.568 242.092 155.568C242.141 155.568 242.202 155.569 242.276 155.571C242.35 155.573 242.406 155.576 242.444 155.58V156.261C242.421 156.256 242.369 156.247 242.288 156.236C242.208 156.223 242.124 156.216 242.035 156.216C241.823 156.216 241.633 156.26 241.467 156.349C241.302 156.437 241.171 156.558 241.075 156.713C240.98 156.866 240.933 157.042 240.933 157.239V160H240.262ZM243.239 160V155.636H243.909V160H243.239ZM243.58 154.909C243.449 154.909 243.336 154.865 243.241 154.776C243.149 154.687 243.102 154.58 243.102 154.455C243.102 154.33 243.149 154.223 243.241 154.134C243.336 154.045 243.449 154 243.58 154C243.71 154 243.822 154.045 243.915 154.134C244.009 154.223 244.057 154.33 244.057 154.455C244.057 154.58 244.009 154.687 243.915 154.776C243.822 154.865 243.71 154.909 243.58 154.909Z" fill="white" fill-opacity="0.3"/>
<path d="M272.886 155.636C272.852 155.348 272.714 155.125 272.472 154.966C272.229 154.807 271.932 154.727 271.58 154.727C271.322 154.727 271.097 154.769 270.903 154.852C270.712 154.936 270.563 155.05 270.455 155.196C270.348 155.342 270.295 155.508 270.295 155.693C270.295 155.848 270.332 155.982 270.406 156.094C270.482 156.204 270.579 156.295 270.696 156.369C270.813 156.441 270.937 156.501 271.065 156.548C271.194 156.594 271.312 156.631 271.42 156.659L272.011 156.818C272.163 156.858 272.331 156.913 272.517 156.983C272.705 157.053 272.884 157.149 273.054 157.27C273.226 157.389 273.368 157.543 273.48 157.73C273.592 157.918 273.648 158.148 273.648 158.42C273.648 158.735 273.565 159.019 273.401 159.273C273.238 159.527 272.999 159.728 272.685 159.878C272.372 160.027 271.992 160.102 271.545 160.102C271.129 160.102 270.768 160.035 270.463 159.901C270.16 159.766 269.921 159.579 269.747 159.338C269.575 159.098 269.477 158.818 269.455 158.5H270.182C270.201 158.72 270.275 158.902 270.403 159.045C270.534 159.187 270.699 159.294 270.898 159.364C271.098 159.432 271.314 159.466 271.545 159.466C271.814 159.466 272.056 159.422 272.27 159.335C272.484 159.246 272.653 159.123 272.778 158.966C272.903 158.807 272.966 158.621 272.966 158.409C272.966 158.216 272.912 158.059 272.804 157.938C272.696 157.816 272.554 157.718 272.378 157.642C272.202 157.566 272.011 157.5 271.807 157.443L271.091 157.239C270.636 157.108 270.277 156.921 270.011 156.679C269.746 156.437 269.614 156.119 269.614 155.727C269.614 155.402 269.702 155.117 269.878 154.875C270.056 154.631 270.295 154.441 270.594 154.307C270.895 154.17 271.231 154.102 271.602 154.102C271.977 154.102 272.311 154.17 272.602 154.304C272.894 154.437 273.125 154.618 273.295 154.849C273.468 155.08 273.559 155.343 273.568 155.636H272.886ZM275.999 160.102C275.723 160.102 275.472 160.05 275.246 159.946C275.021 159.84 274.842 159.688 274.71 159.489C274.577 159.288 274.511 159.045 274.511 158.761C274.511 158.511 274.56 158.309 274.658 158.153C274.757 157.996 274.888 157.873 275.053 157.784C275.218 157.695 275.4 157.629 275.599 157.585C275.799 157.54 276.001 157.504 276.204 157.477C276.469 157.443 276.684 157.418 276.849 157.401C277.015 157.382 277.137 157.35 277.212 157.307C277.29 157.263 277.329 157.187 277.329 157.08V157.057C277.329 156.777 277.252 156.559 277.099 156.403C276.947 156.248 276.717 156.17 276.408 156.17C276.088 156.17 275.837 156.241 275.656 156.381C275.474 156.521 275.346 156.67 275.272 156.83L274.636 156.602C274.749 156.337 274.901 156.131 275.09 155.983C275.281 155.833 275.49 155.729 275.715 155.67C275.942 155.61 276.166 155.58 276.386 155.58C276.526 155.58 276.687 155.597 276.869 155.631C277.052 155.663 277.229 155.73 277.4 155.832C277.572 155.935 277.715 156.089 277.829 156.295C277.942 156.502 277.999 156.778 277.999 157.125V160H277.329V159.409H277.295C277.249 159.504 277.174 159.605 277.067 159.713C276.961 159.821 276.82 159.913 276.644 159.989C276.468 160.064 276.253 160.102 275.999 160.102ZM276.102 159.5C276.367 159.5 276.59 159.448 276.772 159.344C276.956 159.24 277.094 159.105 277.187 158.94C277.281 158.776 277.329 158.602 277.329 158.42V157.807C277.3 157.841 277.238 157.872 277.141 157.901C277.047 157.927 276.937 157.951 276.812 157.972C276.689 157.991 276.568 158.008 276.451 158.023C276.335 158.036 276.242 158.047 276.17 158.057C275.996 158.08 275.833 158.116 275.681 158.168C275.531 158.217 275.41 158.292 275.317 158.392C275.227 158.491 275.181 158.625 275.181 158.795C275.181 159.028 275.267 159.205 275.44 159.324C275.614 159.441 275.835 159.5 276.102 159.5ZM281.121 155.636V156.205H278.859V155.636H281.121ZM279.518 154.591H280.189V158.75C280.189 158.939 280.216 159.081 280.271 159.176C280.328 159.269 280.4 159.331 280.487 159.364C280.576 159.394 280.67 159.409 280.768 159.409C280.842 159.409 280.903 159.405 280.95 159.398C280.998 159.388 281.036 159.381 281.064 159.375L281.2 159.977C281.155 159.994 281.091 160.011 281.01 160.028C280.929 160.047 280.825 160.057 280.7 160.057C280.511 160.057 280.325 160.016 280.143 159.935C279.964 159.853 279.814 159.729 279.695 159.562C279.577 159.396 279.518 159.186 279.518 158.932V154.591Z" fill="white" fill-opacity="0.3"/>
<path d="M309.886 155.636C309.852 155.348 309.714 155.125 309.472 154.966C309.229 154.807 308.932 154.727 308.58 154.727C308.322 154.727 308.097 154.769 307.903 154.852C307.712 154.936 307.563 155.05 307.455 155.196C307.348 155.342 307.295 155.508 307.295 155.693C307.295 155.848 307.332 155.982 307.406 156.094C307.482 156.204 307.579 156.295 307.696 156.369C307.813 156.441 307.937 156.501 308.065 156.548C308.194 156.594 308.312 156.631 308.42 156.659L309.011 156.818C309.163 156.858 309.331 156.913 309.517 156.983C309.705 157.053 309.884 157.149 310.054 157.27C310.226 157.389 310.368 157.543 310.48 157.73C310.592 157.918 310.648 158.148 310.648 158.42C310.648 158.735 310.565 159.019 310.401 159.273C310.238 159.527 309.999 159.728 309.685 159.878C309.372 160.027 308.992 160.102 308.545 160.102C308.129 160.102 307.768 160.035 307.463 159.901C307.16 159.766 306.921 159.579 306.747 159.338C306.575 159.098 306.477 158.818 306.455 158.5H307.182C307.201 158.72 307.275 158.902 307.403 159.045C307.534 159.187 307.699 159.294 307.898 159.364C308.098 159.432 308.314 159.466 308.545 159.466C308.814 159.466 309.056 159.422 309.27 159.335C309.484 159.246 309.653 159.123 309.778 158.966C309.903 158.807 309.966 158.621 309.966 158.409C309.966 158.216 309.912 158.059 309.804 157.938C309.696 157.816 309.554 157.718 309.378 157.642C309.202 157.566 309.011 157.5 308.807 157.443L308.091 157.239C307.636 157.108 307.277 156.921 307.011 156.679C306.746 156.437 306.614 156.119 306.614 155.727C306.614 155.402 306.702 155.117 306.878 154.875C307.056 154.631 307.295 154.441 307.594 154.307C307.895 154.17 308.231 154.102 308.602 154.102C308.977 154.102 309.311 154.17 309.602 154.304C309.894 154.437 310.125 154.618 310.295 154.849C310.468 155.08 310.559 155.343 310.568 155.636H309.886ZM314.465 158.216V155.636H315.136V160H314.465V159.261H314.42C314.317 159.483 314.158 159.671 313.942 159.827C313.727 159.98 313.454 160.057 313.124 160.057C312.852 160.057 312.609 159.997 312.397 159.878C312.185 159.757 312.018 159.575 311.897 159.332C311.776 159.088 311.715 158.78 311.715 158.409V155.636H312.386V158.364C312.386 158.682 312.475 158.936 312.653 159.125C312.833 159.314 313.062 159.409 313.34 159.409C313.507 159.409 313.676 159.366 313.849 159.281C314.023 159.196 314.169 159.065 314.286 158.889C314.406 158.713 314.465 158.489 314.465 158.216ZM317.034 157.375V160H316.364V155.636H317.011V156.318H317.068C317.17 156.097 317.326 155.919 317.534 155.784C317.742 155.648 318.011 155.58 318.341 155.58C318.636 155.58 318.895 155.64 319.116 155.761C319.338 155.881 319.51 156.062 319.634 156.307C319.757 156.549 319.818 156.856 319.818 157.227V160H319.148V157.273C319.148 156.93 319.059 156.663 318.881 156.472C318.703 156.278 318.458 156.182 318.148 156.182C317.934 156.182 317.742 156.228 317.574 156.321C317.407 156.414 317.276 156.549 317.179 156.727C317.082 156.905 317.034 157.121 317.034 157.375Z" fill="white" fill-opacity="0.3"/>
<path d="M196.386 154.807V154.182H200.75V154.807H198.92V160H198.216V154.807H196.386ZM202.417 157.375V160H201.746V154.182H202.417V156.318H202.474C202.576 156.093 202.729 155.914 202.934 155.781C203.14 155.647 203.415 155.58 203.758 155.58C204.055 155.58 204.316 155.639 204.539 155.759C204.763 155.876 204.936 156.057 205.059 156.301C205.184 156.544 205.246 156.852 205.246 157.227V160H204.576V157.273C204.576 156.926 204.486 156.658 204.306 156.469C204.128 156.277 203.881 156.182 203.565 156.182C203.345 156.182 203.148 156.228 202.974 156.321C202.801 156.414 202.665 156.549 202.565 156.727C202.466 156.905 202.417 157.121 202.417 157.375ZM209.223 158.216V155.636H209.893V160H209.223V159.261H209.178C209.075 159.483 208.916 159.671 208.7 159.827C208.484 159.98 208.212 160.057 207.882 160.057C207.609 160.057 207.367 159.997 207.155 159.878C206.943 159.757 206.776 159.575 206.655 159.332C206.534 159.088 206.473 158.78 206.473 158.409V155.636H207.143V158.364C207.143 158.682 207.232 158.936 207.411 159.125C207.59 159.314 207.82 159.409 208.098 159.409C208.265 159.409 208.434 159.366 208.607 159.281C208.781 159.196 208.927 159.065 209.044 158.889C209.163 158.713 209.223 158.489 209.223 158.216Z" fill="white" fill-opacity="0.3"/>
<rect x="171" y="70" width="59" height="37" rx="8" fill="#1B044B"/>
<path d="M188.426 97.7273V90.4545H188.892V97.7273H188.426ZM189.662 92.8551C189.639 92.6259 189.542 92.4479 189.369 92.321C189.197 92.1941 188.963 92.1307 188.668 92.1307C188.467 92.1307 188.297 92.1591 188.159 92.2159C188.021 92.2708 187.915 92.3475 187.841 92.446C187.769 92.5445 187.733 92.6562 187.733 92.7812C187.729 92.8854 187.751 92.9763 187.798 93.054C187.848 93.1316 187.915 93.1989 188 93.2557C188.085 93.3106 188.184 93.3589 188.295 93.4006C188.407 93.4403 188.527 93.4744 188.653 93.5028L189.176 93.6278C189.43 93.6847 189.663 93.7604 189.875 93.8551C190.087 93.9498 190.271 94.0663 190.426 94.2045C190.581 94.3428 190.702 94.5057 190.787 94.6932C190.874 94.8807 190.919 95.0956 190.92 95.3381C190.919 95.6941 190.828 96.0028 190.648 96.2642C190.47 96.5237 190.212 96.7254 189.875 96.8693C189.54 97.0114 189.135 97.0824 188.662 97.0824C188.192 97.0824 187.783 97.0104 187.435 96.8665C187.088 96.7225 186.817 96.5095 186.622 96.2273C186.429 95.9432 186.328 95.5919 186.318 95.1733H187.509C187.522 95.3684 187.578 95.5312 187.676 95.6619C187.777 95.7907 187.91 95.8883 188.077 95.9545C188.245 96.0189 188.436 96.0511 188.648 96.0511C188.856 96.0511 189.037 96.0208 189.19 95.9602C189.346 95.8996 189.466 95.8153 189.551 95.7074C189.636 95.5994 189.679 95.4754 189.679 95.3352C189.679 95.2045 189.64 95.0947 189.562 95.0057C189.487 94.9167 189.375 94.8409 189.227 94.7784C189.081 94.7159 188.902 94.6591 188.69 94.608L188.057 94.4489C187.566 94.3295 187.179 94.143 186.895 93.8892C186.611 93.6354 186.47 93.2936 186.472 92.8636C186.47 92.5114 186.563 92.2036 186.753 91.9403C186.944 91.6771 187.206 91.4716 187.54 91.3239C187.873 91.1761 188.252 91.1023 188.676 91.1023C189.108 91.1023 189.485 91.1761 189.807 91.3239C190.131 91.4716 190.383 91.6771 190.562 91.9403C190.742 92.2036 190.835 92.5085 190.841 92.8551H189.662ZM191.714 97V96.1136L193.785 94.196C193.961 94.0256 194.109 93.8722 194.228 93.7358C194.349 93.5994 194.441 93.4659 194.504 93.3352C194.566 93.2027 194.597 93.0597 194.597 92.9062C194.597 92.7358 194.558 92.589 194.481 92.4659C194.403 92.3409 194.297 92.2453 194.163 92.179C194.028 92.1108 193.876 92.0767 193.705 92.0767C193.527 92.0767 193.372 92.1127 193.239 92.1847C193.107 92.2566 193.004 92.3598 192.933 92.4943C192.861 92.6288 192.825 92.7888 192.825 92.9744H191.657C191.657 92.5937 191.743 92.2633 191.915 91.983C192.088 91.7027 192.329 91.4858 192.64 91.3324C192.951 91.179 193.308 91.1023 193.714 91.1023C194.13 91.1023 194.493 91.1761 194.802 91.3239C195.112 91.4697 195.354 91.6723 195.526 91.9318C195.699 92.1913 195.785 92.4886 195.785 92.8239C195.785 93.0436 195.741 93.2604 195.654 93.4744C195.569 93.6884 195.416 93.9261 195.197 94.1875C194.977 94.447 194.667 94.7585 194.268 95.1222L193.418 95.9545V95.9943H195.862V97H191.714ZM198.08 96.2045L198.048 96.517C198.024 96.767 197.976 97.0161 197.906 97.2642C197.838 97.5142 197.766 97.7405 197.69 97.9432C197.616 98.1458 197.557 98.3049 197.511 98.4205H196.727C196.756 98.3087 196.795 98.1525 196.844 97.9517C196.893 97.7528 196.939 97.5294 196.983 97.2812C197.027 97.0331 197.054 96.7803 197.065 96.5227L197.08 96.2045H198.08ZM199.175 97V96.1136L201.246 94.196C201.422 94.0256 201.57 93.8722 201.689 93.7358C201.81 93.5994 201.902 93.4659 201.964 93.3352C202.027 93.2027 202.058 93.0597 202.058 92.9062C202.058 92.7358 202.019 92.589 201.942 92.4659C201.864 92.3409 201.758 92.2453 201.624 92.179C201.489 92.1108 201.337 92.0767 201.166 92.0767C200.988 92.0767 200.833 92.1127 200.7 92.1847C200.568 92.2566 200.465 92.3598 200.393 92.4943C200.321 92.6288 200.286 92.7888 200.286 92.9744H199.118C199.118 92.5937 199.204 92.2633 199.376 91.983C199.549 91.7027 199.79 91.4858 200.101 91.3324C200.411 91.179 200.769 91.1023 201.175 91.1023C201.591 91.1023 201.954 91.1761 202.263 91.3239C202.573 91.4697 202.815 91.6723 202.987 91.9318C203.16 92.1913 203.246 92.4886 203.246 92.8239C203.246 93.0436 203.202 93.2604 203.115 93.4744C203.03 93.6884 202.877 93.9261 202.658 94.1875C202.438 94.447 202.128 94.7585 201.729 95.1222L200.879 95.9545V95.9943H203.322V97H199.175ZM206.339 97.0795C205.937 97.0795 205.579 97.0057 205.265 96.858C204.952 96.7102 204.704 96.5066 204.521 96.2472C204.337 95.9877 204.241 95.6903 204.234 95.3551H205.427C205.44 95.5805 205.535 95.7633 205.711 95.9034C205.887 96.0436 206.096 96.1136 206.339 96.1136C206.532 96.1136 206.702 96.071 206.85 95.9858C207 95.8987 207.116 95.7784 207.2 95.625C207.285 95.4697 207.327 95.2917 207.327 95.0909C207.327 94.8864 207.284 94.7064 207.197 94.5511C207.112 94.3958 206.993 94.2746 206.842 94.1875C206.69 94.1004 206.517 94.0559 206.322 94.054C206.151 94.054 205.986 94.089 205.825 94.1591C205.665 94.2292 205.541 94.3248 205.452 94.446L204.359 94.25L204.634 91.1818H208.191V92.1875H205.648L205.498 93.6449H205.532C205.634 93.5009 205.789 93.3816 205.995 93.2869C206.201 93.1922 206.433 93.1449 206.688 93.1449C207.039 93.1449 207.351 93.2273 207.626 93.392C207.9 93.5568 208.117 93.7831 208.276 94.071C208.435 94.357 208.514 94.6866 208.512 95.0597C208.514 95.4517 208.423 95.8002 208.239 96.1051C208.058 96.4081 207.803 96.6468 207.475 96.821C207.149 96.9934 206.771 97.0795 206.339 97.0795ZM211.521 97.0795C211.096 97.0795 210.719 97.0066 210.387 96.8608C210.058 96.7131 209.797 96.5104 209.606 96.2528C209.416 95.9934 209.319 95.6941 209.313 95.3551H210.552C210.559 95.4972 210.606 95.6222 210.691 95.7301C210.778 95.8362 210.894 95.9186 211.038 95.9773C211.182 96.036 211.344 96.0653 211.523 96.0653C211.711 96.0653 211.877 96.0322 212.021 95.9659C212.165 95.8996 212.277 95.8078 212.359 95.6903C212.44 95.5729 212.481 95.4375 212.481 95.2841C212.481 95.1288 212.437 94.9915 212.35 94.8722C212.265 94.7509 212.142 94.6562 211.981 94.5881C211.822 94.5199 211.632 94.4858 211.413 94.4858H210.87V93.5824H211.413C211.598 93.5824 211.762 93.5502 211.904 93.4858C212.048 93.4214 212.16 93.3324 212.239 93.2188C212.319 93.1032 212.359 92.9688 212.359 92.8153C212.359 92.6695 212.324 92.5417 212.254 92.4318C212.185 92.3201 212.089 92.233 211.964 92.1705C211.841 92.108 211.697 92.0767 211.532 92.0767C211.365 92.0767 211.213 92.107 211.075 92.1676C210.936 92.2263 210.826 92.3106 210.742 92.4205C210.659 92.5303 210.614 92.6591 210.609 92.8068H209.43C209.435 92.4716 209.531 92.1761 209.717 91.9205C209.902 91.6648 210.152 91.465 210.467 91.321C210.783 91.1752 211.14 91.1023 211.538 91.1023C211.939 91.1023 212.29 91.1752 212.592 91.321C212.893 91.4669 213.127 91.6638 213.293 91.9119C213.462 92.1581 213.545 92.4347 213.543 92.7415C213.545 93.0672 213.444 93.339 213.239 93.5568C213.037 93.7746 212.772 93.9129 212.447 93.9716V94.017C212.875 94.072 213.201 94.2206 213.424 94.4631C213.649 94.7036 213.761 95.0047 213.759 95.3665C213.761 95.6979 213.665 95.9924 213.472 96.25C213.281 96.5076 213.017 96.7102 212.68 96.858C212.343 97.0057 211.956 97.0795 211.521 97.0795Z" fill="white"/>
<path d="M186.832 80.3636H187.273V82.9631C187.273 83.1951 187.23 83.3922 187.145 83.5543C187.06 83.7165 186.94 83.8396 186.784 83.9237C186.629 84.0077 186.446 84.0497 186.236 84.0497C186.037 84.0497 185.86 84.0136 185.705 83.9414C185.55 83.868 185.428 83.7638 185.339 83.6289C185.25 83.494 185.206 83.3336 185.206 83.1477H185.639C185.639 83.2507 185.665 83.3407 185.716 83.4176C185.768 83.4934 185.839 83.5526 185.929 83.5952C186.019 83.6378 186.121 83.6591 186.236 83.6591C186.362 83.6591 186.47 83.6325 186.559 83.5792C186.648 83.5259 186.715 83.4478 186.761 83.3448C186.809 83.2406 186.832 83.1134 186.832 82.9631V80.3636ZM188.901 84.0639C188.728 84.0639 188.571 84.0314 188.43 83.9663C188.29 83.9 188.178 83.8047 188.095 83.6804C188.012 83.5549 187.971 83.4034 187.971 83.2259C187.971 83.0696 188.001 82.9429 188.063 82.8459C188.124 82.7476 188.207 82.6707 188.31 82.6151C188.413 82.5594 188.526 82.518 188.651 82.4908C188.776 82.4624 188.902 82.4399 189.029 82.4233C189.194 82.402 189.329 82.386 189.432 82.3754C189.536 82.3635 189.612 82.344 189.659 82.3168C189.708 82.2895 189.732 82.2422 189.732 82.1747V82.1605C189.732 81.9853 189.684 81.8492 189.588 81.7521C189.493 81.6551 189.35 81.6065 189.157 81.6065C188.957 81.6065 188.8 81.6503 188.686 81.7379C188.572 81.8255 188.493 81.919 188.446 82.0185L188.049 81.8764C188.12 81.7107 188.214 81.5817 188.333 81.4893C188.452 81.3958 188.583 81.3307 188.723 81.294C188.865 81.2562 189.005 81.2372 189.142 81.2372C189.23 81.2372 189.331 81.2479 189.444 81.2692C189.559 81.2893 189.67 81.3313 189.776 81.3952C189.884 81.4592 189.973 81.5556 190.044 81.6847C190.115 81.8137 190.151 81.9865 190.151 82.2031V84H189.732V83.6307H189.711C189.682 83.6899 189.635 83.7532 189.569 83.8207C189.502 83.8881 189.414 83.9455 189.304 83.9929C189.194 84.0402 189.06 84.0639 188.901 84.0639ZM188.965 83.6875C189.131 83.6875 189.27 83.6549 189.384 83.5898C189.499 83.5247 189.585 83.4407 189.643 83.3377C189.702 83.2347 189.732 83.1264 189.732 83.0128V82.6293C189.714 82.6506 189.675 82.6701 189.615 82.6879C189.556 82.7044 189.487 82.7192 189.409 82.7322C189.332 82.7441 189.257 82.7547 189.183 82.7642C189.111 82.7725 189.052 82.7796 189.007 82.7855C188.899 82.7997 188.797 82.8228 188.702 82.8548C188.609 82.8855 188.533 82.9323 188.475 82.995C188.418 83.0566 188.39 83.1406 188.39 83.2472C188.39 83.3928 188.443 83.5028 188.551 83.5774C188.66 83.6508 188.798 83.6875 188.965 83.6875ZM191.335 82.3594V84H190.916V81.2727H191.321V81.6989H191.356C191.42 81.5604 191.517 81.4491 191.647 81.3651C191.777 81.2798 191.946 81.2372 192.152 81.2372C192.336 81.2372 192.498 81.2751 192.636 81.3509C192.775 81.4254 192.882 81.5391 192.959 81.6918C193.036 81.8433 193.075 82.035 193.075 82.267V84H192.656V82.2955C192.656 82.0812 192.6 81.9143 192.489 81.7947C192.378 81.674 192.225 81.6136 192.031 81.6136C191.897 81.6136 191.777 81.6426 191.672 81.7006C191.568 81.7586 191.486 81.8433 191.425 81.9545C191.365 82.0658 191.335 82.2008 191.335 82.3594ZM195.24 84V83.6804L196.44 82.3665C196.581 82.2126 196.697 82.0788 196.788 81.9652C196.879 81.8504 196.947 81.7427 196.99 81.642C197.035 81.5402 197.058 81.4337 197.058 81.3224C197.058 81.1946 197.027 81.0839 196.966 80.9904C196.905 80.8969 196.822 80.8247 196.717 80.7738C196.612 80.7229 196.493 80.6974 196.362 80.6974C196.222 80.6974 196.1 80.7264 195.996 80.7844C195.893 80.8413 195.813 80.9212 195.756 81.0241C195.701 81.1271 195.673 81.2479 195.673 81.3864H195.254C195.254 81.1733 195.303 80.9863 195.401 80.8253C195.5 80.6643 195.633 80.5388 195.803 80.4489C195.973 80.3589 196.164 80.3139 196.376 80.3139C196.589 80.3139 196.778 80.3589 196.942 80.4489C197.107 80.5388 197.236 80.6602 197.33 80.8129C197.423 80.9656 197.47 81.1354 197.47 81.3224C197.47 81.4562 197.446 81.587 197.397 81.7148C197.35 81.8415 197.267 81.983 197.148 82.1392C197.031 82.2943 196.868 82.4837 196.66 82.7074L195.843 83.581V83.6094H197.534V84H195.24ZM199.403 84.0497C199.195 84.0497 199.007 84.0083 198.841 83.9254C198.674 83.8426 198.54 83.7289 198.439 83.5845C198.339 83.4401 198.284 83.2756 198.274 83.0909H198.7C198.717 83.2554 198.791 83.3916 198.924 83.4993C199.058 83.6058 199.218 83.6591 199.403 83.6591C199.553 83.6591 199.685 83.6242 199.801 83.5543C199.918 83.4845 200.01 83.3886 200.076 83.2667C200.144 83.1436 200.178 83.0045 200.178 82.8494C200.178 82.6908 200.143 82.5494 200.073 82.4251C200.004 82.2996 199.909 82.2008 199.789 82.1286C199.668 82.0563 199.53 82.0196 199.375 82.0185C199.264 82.0173 199.15 82.0344 199.032 82.07C198.915 82.1043 198.819 82.1487 198.743 82.2031L198.331 82.1534L198.551 80.3636H200.44V80.7543H198.92L198.793 81.8267H198.814C198.888 81.7675 198.982 81.7184 199.094 81.6793C199.207 81.6403 199.324 81.6207 199.446 81.6207C199.669 81.6207 199.867 81.674 200.041 81.7805C200.216 81.8859 200.353 82.0303 200.453 82.2138C200.553 82.3973 200.604 82.6068 200.604 82.8423C200.604 83.0743 200.552 83.2815 200.447 83.4638C200.344 83.6449 200.202 83.7881 200.021 83.8935C199.84 83.9976 199.634 84.0497 199.403 84.0497ZM201.804 83.5028L201.776 83.6946C201.756 83.8295 201.725 83.974 201.684 84.1278C201.643 84.2817 201.601 84.4267 201.558 84.5629C201.514 84.699 201.478 84.8073 201.449 84.8878H201.13C201.145 84.812 201.165 84.712 201.19 84.5877C201.215 84.4634 201.24 84.3243 201.265 84.1705C201.291 84.0178 201.312 83.8615 201.329 83.7017L201.35 83.5028H201.804ZM203.98 84V83.6804L205.18 82.3665C205.321 82.2126 205.437 82.0788 205.528 81.9652C205.619 81.8504 205.687 81.7427 205.731 81.642C205.776 81.5402 205.798 81.4337 205.798 81.3224C205.798 81.1946 205.767 81.0839 205.706 80.9904C205.645 80.8969 205.563 80.8247 205.457 80.7738C205.352 80.7229 205.233 80.6974 205.102 80.6974C204.962 80.6974 204.84 80.7264 204.736 80.7844C204.633 80.8413 204.553 80.9212 204.497 81.0241C204.441 81.1271 204.413 81.2479 204.413 81.3864H203.994C203.994 81.1733 204.043 80.9863 204.142 80.8253C204.24 80.6643 204.374 80.5388 204.543 80.4489C204.713 80.3589 204.904 80.3139 205.116 80.3139C205.329 80.3139 205.518 80.3589 205.683 80.4489C205.847 80.5388 205.976 80.6602 206.07 80.8129C206.163 80.9656 206.21 81.1354 206.21 81.3224C206.21 81.4562 206.186 81.587 206.137 81.7148C206.09 81.8415 206.007 81.983 205.889 82.1392C205.771 82.2943 205.609 82.4837 205.4 82.7074L204.584 83.581V83.6094H206.274V84H203.98ZM208.193 84.0497C207.926 84.0497 207.698 83.9769 207.51 83.8313C207.322 83.6845 207.178 83.4721 207.078 83.1939C206.979 82.9145 206.929 82.5772 206.929 82.1818C206.929 81.7888 206.979 81.4532 207.078 81.1751C207.179 80.8957 207.323 80.6826 207.512 80.5359C207.701 80.3879 207.928 80.3139 208.193 80.3139C208.459 80.3139 208.685 80.3879 208.873 80.5359C209.063 80.6826 209.207 80.8957 209.307 81.1751C209.407 81.4532 209.458 81.7888 209.458 82.1818C209.458 82.5772 209.408 82.9145 209.308 83.1939C209.209 83.4721 209.065 83.6845 208.877 83.8313C208.689 83.9769 208.461 84.0497 208.193 84.0497ZM208.193 83.6591C208.459 83.6591 208.664 83.5312 208.811 83.2756C208.958 83.0199 209.031 82.6553 209.031 82.1818C209.031 81.867 208.998 81.5988 208.93 81.3775C208.864 81.1561 208.768 80.9875 208.643 80.8714C208.518 80.7554 208.369 80.6974 208.193 80.6974C207.931 80.6974 207.725 80.8271 207.577 81.0863C207.429 81.3443 207.355 81.7095 207.355 82.1818C207.355 82.4967 207.388 82.7642 207.455 82.9844C207.521 83.2045 207.616 83.372 207.741 83.4869C207.866 83.6017 208.017 83.6591 208.193 83.6591ZM210.132 84V83.6804L211.333 82.3665C211.473 82.2126 211.589 82.0788 211.681 81.9652C211.772 81.8504 211.839 81.7427 211.883 81.642C211.928 81.5402 211.95 81.4337 211.95 81.3224C211.95 81.1946 211.92 81.0839 211.858 80.9904C211.798 80.8969 211.715 80.8247 211.61 80.7738C211.504 80.7229 211.386 80.6974 211.254 80.6974C211.115 80.6974 210.993 80.7264 210.889 80.7844C210.786 80.8413 210.706 80.9212 210.649 81.0241C210.593 81.1271 210.566 81.2479 210.566 81.3864H210.146C210.146 81.1733 210.196 80.9863 210.294 80.8253C210.392 80.6643 210.526 80.5388 210.695 80.4489C210.866 80.3589 211.057 80.3139 211.269 80.3139C211.482 80.3139 211.671 80.3589 211.835 80.4489C212 80.5388 212.129 80.6602 212.222 80.8129C212.316 80.9656 212.362 81.1354 212.362 81.3224C212.362 81.4562 212.338 81.587 212.29 81.7148C212.242 81.8415 212.159 81.983 212.041 82.1392C211.924 82.2943 211.761 82.4837 211.553 82.7074L210.736 83.581V83.6094H212.426V84H210.132ZM214.388 84.0497C214.154 84.0497 213.945 84.0095 213.762 83.929C213.579 83.8485 213.434 83.7366 213.327 83.5934C213.22 83.449 213.162 83.2815 213.153 83.0909H213.6C213.609 83.2081 213.65 83.3093 213.721 83.3945C213.792 83.4786 213.885 83.5437 213.999 83.5898C214.114 83.636 214.242 83.6591 214.381 83.6591C214.537 83.6591 214.676 83.6319 214.797 83.5774C214.917 83.523 215.012 83.4472 215.081 83.3501C215.149 83.2531 215.184 83.1406 215.184 83.0128C215.184 82.879 215.151 82.7612 215.084 82.6594C215.018 82.5565 214.921 82.476 214.793 82.418C214.665 82.36 214.509 82.331 214.324 82.331H214.033V81.9403H214.324C214.469 81.9403 214.595 81.9143 214.704 81.8622C214.814 81.8101 214.9 81.7367 214.962 81.642C215.025 81.5473 215.056 81.4361 215.056 81.3082C215.056 81.1851 215.029 81.078 214.974 80.9869C214.92 80.8957 214.843 80.8247 214.743 80.7738C214.645 80.7229 214.529 80.6974 214.395 80.6974C214.27 80.6974 214.152 80.7205 214.04 80.7667C213.93 80.8117 213.84 80.8774 213.77 80.9638C213.701 81.049 213.663 81.152 213.657 81.2727H213.231C213.238 81.0821 213.295 80.9152 213.403 80.772C213.511 80.6276 213.651 80.5152 213.825 80.4347C214.001 80.3542 214.193 80.3139 214.403 80.3139C214.627 80.3139 214.82 80.3595 214.981 80.4506C215.142 80.5406 215.266 80.6596 215.352 80.8075C215.439 80.9555 215.482 81.1153 215.482 81.2869C215.482 81.4917 215.428 81.6663 215.32 81.8107C215.214 81.9551 215.069 82.0552 214.885 82.1108V82.1392C215.115 82.1771 215.294 82.2747 215.423 82.4322C215.552 82.5884 215.617 82.782 215.617 83.0128C215.617 83.2105 215.563 83.388 215.455 83.5455C215.349 83.7017 215.203 83.8248 215.019 83.9148C214.834 84.0047 214.624 84.0497 214.388 84.0497Z" fill="white" fill-opacity="0.7"/>
</g>
</g>
<defs>
<filter id="filter0_d_65_48" x="0" y="0" width="351" height="236" filterUnits="userSpaceOnUse" color-interpolation-filters="sRGB">
<feFlood flood-opacity="0" result="BackgroundImageFix"/>
<feColorMatrix in="SourceAlpha" type="matrix" values="0 0 0 0 0 0 0 0 0 0 0 0 0 0 0 0 0 0 127 0" result="hardAlpha"/>
<feOffset dx="-20" dy="14"/>
<feGaussianBlur stdDeviation="12"/>
<feComposite in2="hardAlpha" operator="out"/>
<feColorMatrix type="matrix" values="0 0 0 0 0 0 0 0 0 0 0 0 0 0 0 0 0 0 0.05 0"/>
<feBlend mode="normal" in2="BackgroundImageFix" result="effect1_dropShadow_65_48"/>
<feBlend mode="normal" in="SourceGraphic" in2="effect1_dropShadow_65_48" result="shape"/>
</filter>
<clipPath id="clip0_65_48">
<path d="M44 26C44 17.1634 51.1634 10 60 10H347V198H44V26Z" fill="white"/>
</clipPath>
</defs>
</svg>
