<svg width="200" height="31" viewBox="0 0 200 31" fill="none" xmlns="http://www.w3.org/2000/svg">
<path d="M28.7159 0.224722C28.4733 0.0663951 28.1822 0 27.8936 0H27.8911L8.71308 0.0357512C8.06956 0.0357512 7.49755 0.423907 7.25751 1.02146L1.09553 16.397L0 16.0497L1.8846 21.4967L6.56289 18.131L5.57974 17.8194L10.8173 4.74725C10.8301 4.73959 10.8403 4.73193 10.8531 4.72172L23.0365 4.69873C23.0365 4.69873 23.057 4.69873 23.0697 4.71661C23.08 4.73448 23.0774 4.7447 23.0723 4.75236L17.7582 16.7775C17.559 17.2295 17.5845 17.7556 17.8271 18.1846L21.9921 25.5621H18.3199C18.3199 25.5621 18.2995 25.5494 18.2867 25.5417L13.8 17.4772C13.6876 17.273 13.6723 17.0278 13.7617 16.8133L16.0625 11.2259L17.0738 11.563L15.2683 6.09048L10.5415 9.38725L11.5987 9.73966L8.70797 16.7597C8.52666 17.2014 8.55477 17.7045 8.78715 18.1208L15.0896 29.4462C15.3654 29.9442 15.8914 30.2532 16.4634 30.2532H27.2731C27.8375 30.2532 28.3865 29.9825 28.6802 29.4999C28.9789 29.007 28.9891 28.4095 28.7057 27.9089L22.6816 17.2398L29.3262 2.20125C29.6327 1.50921 29.413 0.67672 28.7133 0.219615L28.7159 0.224722Z" fill="url(#paint0_linear_40_7)"/>
<path d="M34.4846 14.515C34.4846 8.58282 39.0326 3.97858 44.7937 3.97858C50.5547 3.97858 54.6508 7.67883 55.302 13.0466H49.6533C49.2294 10.5032 47.3371 8.75392 44.8524 8.75392C41.857 8.75392 39.9647 11.0701 39.9647 14.515C39.9647 17.9599 41.857 20.3348 44.8524 20.3348C47.309 20.3348 49.2013 18.583 49.6533 16.014H55.302C54.6253 21.4379 50.3581 25.1101 44.7937 25.1101C39.2293 25.1101 34.4846 20.4778 34.4846 14.5175V14.515Z" fill="white"/>
<path d="M61.9185 24.6837H57.0895V9.48687H61.5252V12.1708C62.6846 10.3909 65.085 9.37451 67.5136 9.37451V14.4027C64.0968 14.063 61.921 14.3184 61.921 17.679V24.6837H61.9185Z" fill="white"/>
<path d="M76.6736 30.1332H71.3926L73.5122 24.5126L67.58 9.48431H72.8329L76.1092 18.8894L79.046 9.48431H83.9055L76.6736 30.1332Z" fill="white"/>
<path d="M93.5123 24.9646C91.9316 24.9646 90.5756 24.4002 89.3882 23.2689V30.1332H84.5592V9.48684H88.9949V11.2106C90.2385 9.91074 91.735 9.20593 93.5149 9.20593C97.6109 9.20593 100.295 12.7376 100.295 17.0865C100.295 21.4354 97.6109 24.9671 93.5149 24.9671L93.5123 24.9646ZM92.353 13.5523C90.8565 13.5523 89.4444 14.7116 89.4444 17.1121C89.4444 19.5125 90.8846 20.6157 92.353 20.6157C93.8213 20.6157 95.2616 19.5151 95.2616 17.084C95.2616 14.6529 93.8213 13.5523 92.353 13.5523Z" fill="white"/>
<path d="M112.044 24.1448C110.972 24.7373 109.953 24.9646 108.599 24.9646C105.183 24.9646 103.175 22.9319 103.175 19.4563V13.6953H100.351V9.48684H103.175V5.02304H108.004V9.48684H112.157V13.6953H108.004V18.3276C108.004 19.796 108.625 20.4752 109.953 20.4752C110.745 20.4752 111.506 20.2786 112.044 19.939V24.1474V24.1448Z" fill="white"/>
<path d="M112.747 17.084C112.747 12.7351 116.191 9.20337 120.683 9.20337C125.175 9.20337 128.62 12.7351 128.62 17.084C128.62 21.4328 125.175 24.9646 120.683 24.9646C116.191 24.9646 112.747 21.4328 112.747 17.084ZM123.592 17.084C123.592 14.7116 122.18 13.5522 120.683 13.5522C119.187 13.5522 117.775 14.7116 117.775 17.084C117.775 19.4563 119.187 20.6438 120.683 20.6438C122.18 20.6438 123.592 19.4563 123.592 17.084Z" fill="white"/>
<path d="M139.121 24.9646C137.54 24.9646 136.184 24.4002 134.997 23.2689V30.1332H130.168V9.48684H134.603V11.2106C135.847 9.91074 137.343 9.20593 139.123 9.20593C143.219 9.20593 145.903 12.7376 145.903 17.0865C145.903 21.4354 143.219 24.9671 139.123 24.9671L139.121 24.9646ZM137.961 13.5523C136.465 13.5523 135.053 14.7116 135.053 17.1121C135.053 19.5125 136.493 20.6157 137.961 20.6157C139.43 20.6157 140.87 19.5151 140.87 17.084C140.87 14.6529 139.43 13.5523 137.961 13.5523Z" fill="white"/>
<path d="M149.828 8.69519C147.992 8.69519 146.72 7.53583 146.72 5.95512C146.72 4.3744 147.992 3.18695 149.828 3.18695C151.664 3.18695 152.936 4.34631 152.936 5.95512C152.936 7.56392 151.664 8.69519 149.828 8.69519ZM147.456 24.6837V9.48683H152.285V24.6837H147.456Z" fill="white"/>
<path d="M153.748 17.084C153.748 12.564 157.024 9.20337 161.404 9.20337C165.783 9.20337 168.692 12.0277 169.116 16.2642H163.975C163.891 14.5967 162.903 13.5522 161.435 13.5522C159.739 13.5522 158.751 14.8521 158.751 17.084C158.751 19.3159 159.711 20.6438 161.435 20.6438C162.931 20.6438 163.863 19.6274 163.975 17.9037H169.116C168.692 22.2526 165.727 24.9646 161.404 24.9646C157.081 24.9646 153.748 21.7163 153.748 17.084Z" fill="white"/>
<path d="M170.661 24.6837V4.40253H175.49V15.6437L180.207 9.48686H185.771L180.15 16.6907L186.563 24.6837H180.406L175.49 17.7633V24.6837H170.661Z" fill="white"/>
<path d="M192.934 24.9646C188.358 24.9646 185.873 22.8169 185.562 19.3159H190.194C190.194 20.5876 191.353 21.4073 193.018 21.4073C194.119 21.4073 195.11 21.1519 195.11 20.3629C195.11 19.6861 194.602 19.4027 193.557 19.2035L190.564 18.6672C187.908 18.1871 186.215 16.6626 186.215 14.2034C186.215 11.2667 188.7 9.20337 192.684 9.20337C196.667 9.20337 199.436 11.3229 199.716 14.7116H195.084C194.972 13.4961 194.04 12.7632 192.712 12.7632C191.583 12.7632 190.848 13.0747 190.848 13.7514C190.848 14.4282 191.328 14.5993 192.288 14.7678L195.508 15.3602C198.445 15.8965 200 17.3368 200 19.5125C200 22.8731 197.513 24.9646 192.939 24.9646H192.934Z" fill="white"/>
<defs>
<linearGradient id="paint0_linear_40_7" x1="10.899" y1="32.1072" x2="20.4191" y2="6.4199" gradientUnits="userSpaceOnUse">
<stop stop-color="#CEF939"/>
<stop offset="0.49" stop-color="#6FF799"/>
<stop offset="1" stop-color="#17F6F4"/>
</linearGradient>
</defs>
</svg>
