<svg width="390" height="348" viewBox="0 0 390 348" fill="none" xmlns="http://www.w3.org/2000/svg">
<path d="M410.303 8.49795L409.289 7.8351C406.902 6.27502 403.836 5.5 400.492 5.5H400.461H400.455L125.111 6.01404L125.101 6.01406C118.123 6.01405 111.923 10.2147 109.308 16.7326C109.307 16.7334 109.307 16.7341 109.307 16.7349L20.8357 237.811L18.9368 242.556L14.0652 241.009L8.77516 239.33L29.8428 300.309L82.1372 262.632L78.4494 261.462L72.808 259.671L75.0065 254.176L150.207 66.216L150.894 64.4978L152.383 63.603C152.385 63.6019 152.386 63.6008 152.387 63.5996L153.89 62.3955L155.816 62.3919L330.745 62.0614L330.755 62.0614V67.5614C330.755 62.0614 330.758 62.0614 330.76 62.0614L330.765 62.0614L330.774 62.0614L330.793 62.0615L330.833 62.062C330.86 62.0623 330.887 62.0629 330.916 62.0637C330.973 62.0653 331.033 62.0679 331.097 62.0718C331.224 62.0794 331.368 62.0921 331.525 62.1129C331.833 62.1537 332.226 62.2297 332.666 62.3765C333.55 62.6715 334.772 63.3104 335.71 64.6248L335.871 64.8511L336.009 65.0925C336.386 65.7529 336.832 66.7983 336.833 68.1298C336.833 69.1853 336.554 70.0634 336.221 70.7333L260.003 243.454C260.002 243.455 260.001 243.457 260.001 243.459M410.303 8.49795L255.959 261.47C252.476 255.301 252.109 247.737 254.969 241.238L260.001 243.459M410.303 8.49795C417.243 13.6993 419.189 22.2853 416.031 29.4269L416.029 29.4309L320.627 245.664L319.514 248.185L320.868 250.585L407.361 403.994L407.364 404C410.449 409.455 410.347 415.923 407.08 421.32C403.986 426.406 398.016 429.5 391.583 429.5H236.379C230.158 429.5 224.453 426.136 221.467 420.735L221.461 420.726L130.972 257.881L130.968 257.874C128.457 253.369 128.141 247.892 130.115 243.071C130.116 243.07 130.116 243.068 130.117 243.067L171.62 142.135L173.858 136.69L168.274 134.826L163.469 133.222L216.31 96.3148L236.49 157.573L232.365 156.196L227.491 154.569L225.536 159.321L192.51 239.64C192.508 239.644 192.507 239.648 192.505 239.652C190.57 244.313 190.92 249.583 193.317 253.947L193.324 253.958L193.33 253.97L257.75 369.926L258.465 371.212L259.725 371.969C259.782 372.004 259.874 372.06 259.967 372.118L260.076 372.185L260.108 372.205L260.115 372.21L260.117 372.211L261.456 373.049H263.035H315.759H325.174L320.55 364.848L260.75 258.769L260.748 258.766C258.122 254.115 257.838 248.377 260.001 243.459M410.303 8.49795L260.001 243.459" stroke="url(#paint0_linear_70_138)" stroke-width="11"/>
<defs>
<linearGradient id="paint0_linear_70_138" x1="156.486" y1="461.657" x2="293.522" y2="92.4388" gradientUnits="userSpaceOnUse">
<stop stop-color="#CEF939"/>
<stop offset="0.49" stop-color="#6FF799"/>
<stop offset="1" stop-color="#17F6F4"/>
</linearGradient>
</defs>
</svg>
